The Apartment (1960) B & W

Director: Billy Wilder

The Apartment is a 1960 American comedy-drama film produced and directed by Billy Wilder, and starring Jack Lemmon, Shirley MacLaine, and Fred MacMurray. It was Wilder's follow-up to the enormously popular Some Like It Hot and, like its predecessor, was a commercial and critical hit, grossing $25 million at the box office. The film was nominated for 10 Academy Awards, and won five, including Best Picture.

It was later adapted as a Broadway musical, Promises, Promises, with a book by Neil Simon, music by Burt Bacharach and lyrics by Hal David.

Although Wilder generally required his actors to adhere exactly to the script, he allowed Jack Lemmon to improvise in two scenes: in one scene he squirted a bottle of nose drops across the room and in another he sang while making a meal of spaghetti. In another scene where Lemmon was supposed to mime being punched, he failed to move correctly and was accidentally knocked down. Wilder chose to use the shot of the genuine punch in the film. He also caught a cold when one scene on a park bench was filmed in sub-zero weather.

Art director Alexandre Trauner used forced perspective to create the set of a large insurance company office. The set appeared to be a long room full of desks and workers; however, successively smaller people and desks were placed to the back of the room ending up with dwarfs. He designed the set of Baxter's apartment to appear smaller and shabbier than the spacious apartments that usually appeared in films of the day. He used items from thrift stores and even some of Wilder's own furniture for the set.

Media Info:
General
Complete name                    : J:\Seeding\The Apartment (1960)[DVDRip][big_dad_e™]\The Apartment (1960)[DVDRip][big_dad_e™].avi
Format                           : AVI
Format/Info                      : Audio Video Interleave
Format profile                   : OpenDML
File size                        : 1.22 GiB
Duration                         : 2h 5mn
Overall bit rate                 : 1 398 Kbps
Movie name                       : THE_APARTMENT.Title1.DVDRip
Writing application              : Lavf52.78.4
Original source form/Name        : THE_APARTMENT

Video
ID                               : 0
Format                           : MPEG-4 Visual
Format profile                   : Advanced Simple@L5
Format settings, BVOP            : 2
Format settings, QPel            : No
Format settings, GMC             : No warppoints
Format settings, Matrix          : Default (H.263)
Muxing mode                      : Packed bitstream
Codec ID                         : XVID
Codec ID/Hint                    : XviD
Duration                         : 2h 5mn
Bit rate                         : 235 Kbps
Width                            : 720 pixels
Height                           : 308 pixels
Display aspect ratio             : 2.35:1
Frame rate                       : 23.976 fps
Color space                      : YUV
Chroma subsampling               : 4:2:0
Bit depth                        : 8 bits
Scan type                        : Progressive
Compression mode                 : Lossy
Bits/(Pixel*Frame)               : 0.044
Stream size                      : 211 MiB (17%)
Writing library                  : XviD

Audio
ID                               : 1
Format                           : MPEG Audio
Format version                   : Version 1
Format profile                   : Layer 3
Mode                             : Joint stereo
Mode extension                   : MS Stereo
Codec ID                         : 55
Codec ID/Hint                    : MP3
Duration                         : 2h 5mn
Bit rate mode                    : Constant
Bit rate                         : 320 Kbps
Channel(s)                       : 2 channels
Sampling rate                    : 48.0 KHz
Compression mode                 : Lossy
Stream size                      : 50.4 MiB (4%)
Alignment                        : Aligned on interleaves
Interleave, duration             : 30 ms (0.72 video frame)

File Scan:
Malwarebytes' Anti-Malware 1.50.1.1100
www.malwarebytes.org

Database version: 6084
3/17/2011 2:55:25 AM
mbam-log-2011-03-17 (02-55-25).txt

Scan type: Quick scan
Objects scanned: 5
Time elapsed: 1 minute(s), 21 second(s)

Memory Processes Infected: 0
Memory Modules Infected: 0
Registry Keys Infected: 0
Registry Values Infected: 0
Registry Data Items Infected: 0
Folders Infected: 0
Files Infected: 0

Memory Processes Infected:
(No malicious items detected)

Memory Modules Infected:
(No malicious items detected)

Registry Keys Infected:
(No malicious items detected)

Registry Values Infected:
(No malicious items detected)

Registry Data Items Infected:
(No malicious items detected)

Folders Infected:
(No malicious items detected)

Files Infected:
(No malicious items detected)

When using TPB please read these important notes:
  
01- Anti-malware apps may warn about keygens, patches, cracks, etc., because of 
    their capabilities, (generating codes, etc.). Sometimes they're added to 
    the virus/spyware database and will be detected as malware. If you don't trust
    the keygens, patches, cracks, etc., don't use them. 
    
02- Before running .exe-files, keygens, patches, cracks, etc., always check first 
    if they can be unpacked. Often some third party added a virus to the 
    original file, repacked it and uploaded it again.

03- Letting anti-malware apps send scan results to their companies can cause
    keygens, patches, cracks, etc., to be added to their virus-database.

04- Firewalls which are set to automatically determine connections will allow 
    apps & malware!. Avoid this by manually configuring your firewall.

05- Usually (new) torrents with many downloads and seeders in a brief period is
    suspicious! Torrents with the Skull & Crossbones icon are trusted.

06- Some people use multiple accounts and post fake comments 
    and/or files trying to spread confusion. They seldom seriously
    comment or have any torrents, or a just a few to look passable.

07- Clicking on unknown links can cause malware to be installed on your machine.
  
08- In general often there are more fake and negative comments than reliable and
    positive comments.

09- In some countries uploading/downloading copyright protected material is 
    forbidden, but showing some appreciation to reliable up-loaders is not.

10- Posting fake and negative comments or fake/infected uploads on TPB can result
    in getting banned from TPB!

Requests?  Find me on SuprBay. http://forum.suprbay.org
 

For reporting bad or suspicious torrents:  
http://forum.suprbay.org/forumdisplay.php?fid=29

For more of my torrents: 
https://thepiratebay.org/user/big_dad_e/  (Secured)

All torrents scanned with:
Norton Anti-virus
Malwarebytes' Anti-malware
 
http://www.pirate-party.us/

ALWAYS SEED & THANKS SEEDERS!